<svg width="89" height="86" viewBox="0 0 89 86" fill="none" xmlns="http://www.w3.org/2000/svg">
<g clip-path="url(#clip0)">
<g opacity="0.15">
<path opacity="0.15" d="M76.3215 42.4557C76.3215 42.2045 76.3215 41.8695 76.3215 41.6183C76.4049 20.9348 59.6392 4.18695 39.0366 4.18695C18.4339 4.18695 1.75164 20.9348 1.75164 41.702C1.75164 62.4693 18.4339 79.2171 39.12 79.2171C42.4564 79.2171 45.6261 78.7984 48.6289 77.9611C52.7994 82.9017 59.0553 86.0837 66.0619 86.0837C78.7404 86.0837 88.9166 75.7838 88.9166 63.1392C88.9166 54.0117 83.8285 46.3077 76.3215 42.4557ZM39.0366 72.6018C22.0206 72.6018 8.25773 58.7011 8.25773 41.702C8.25773 24.703 22.104 10.8023 39.0366 10.8023C55.552 10.8023 69.0647 23.9494 69.8154 40.3622C68.5642 40.1947 67.313 40.0273 66.0619 40.0273C61.1406 40.0273 56.553 41.6183 52.8829 44.2142C51.298 42.2045 49.2962 40.6134 47.1275 39.4411C49.9635 37.0964 51.7151 33.5794 51.7151 29.6436C51.7151 22.6933 46.0431 16.999 39.12 16.999C32.1968 16.999 26.5248 22.6933 26.5248 29.6436C26.5248 33.5794 28.2765 37.0127 31.0291 39.3573C25.1903 42.2882 21.1865 48.3174 21.1865 55.3515C21.1865 67.3262 32.7807 67.3262 39.0366 67.3262C40.8716 67.3262 42.2896 67.2425 43.6242 67.1587C43.9578 68.8335 44.3749 70.3408 45.0422 71.8481C43.0403 72.3505 41.0384 72.6018 39.0366 72.6018ZM43.1237 62.3856C41.956 62.4693 40.538 62.5531 38.8697 62.5531C28.9438 62.5531 25.941 60.8783 25.941 55.519C25.941 48.4012 31.6963 42.5394 38.8697 42.5394C42.8735 42.5394 46.627 44.3817 49.0459 47.5638C45.5426 51.4158 43.2905 56.6076 43.1237 62.3856ZM39.0366 37.4314C34.7826 37.4314 31.3627 33.9981 31.3627 29.7274C31.3627 25.4567 34.7826 22.0234 39.0366 22.0234C43.2905 22.0234 46.7104 25.4567 46.7104 29.7274C46.7104 33.9981 43.2905 37.4314 39.0366 37.4314ZM66.0619 81.0594C56.1359 81.0594 48.045 72.9367 48.045 62.9718C48.045 53.0068 56.1359 44.8841 66.0619 44.8841C75.9878 44.8841 84.0787 53.0068 84.0787 62.9718C84.0787 72.9367 75.9044 81.0594 66.0619 81.0594Z" fill="#005665"/>
<path opacity="0.15" d="M73.3187 58.7011V54.9328C73.3187 51.9182 70.5661 49.4898 67.1462 49.4898H65.9784C62.5586 49.4898 59.806 51.9182 59.806 54.9328V58.7011C58.4714 59.7897 57.5539 61.5482 57.5539 63.3905V69.1685C57.5539 72.518 60.3065 75.2814 63.6429 75.2814H69.3983C72.7348 75.2814 75.4874 72.518 75.4874 69.1685V63.3905C75.4874 61.4645 74.6532 59.7897 73.3187 58.7011ZM65.9784 53.593H67.1462C68.314 53.593 69.2315 54.2629 69.2315 54.9328V57.3612H63.8932V54.9328C63.8932 54.2629 64.8107 53.593 65.9784 53.593ZM71.4002 69.2522C71.4002 70.3408 70.4827 71.2619 69.3983 71.2619H63.6429C62.5586 71.2619 61.6411 70.3408 61.6411 69.2522V63.4742C61.6411 62.3856 62.5586 61.4645 63.6429 61.4645H69.3983C70.4827 61.4645 71.4002 62.3856 71.4002 63.4742V69.2522Z" fill="#005665"/>
<path opacity="0.15" d="M66.5623 69.5871C67.4837 69.5871 68.2306 68.8373 68.2306 67.9124C68.2306 66.9874 67.4837 66.2376 66.5623 66.2376C65.641 66.2376 64.8941 66.9874 64.8941 67.9124C64.8941 68.8373 65.641 69.5871 66.5623 69.5871Z" fill="#005665"/>
</g>
<path d="M76.1546 39.1061C76.1546 38.8549 76.1546 38.52 76.1546 38.2687C76.1546 17.0828 59.1387 0 38.119 0C17.0159 0 0 17.0828 0 38.2687C0 59.4547 17.0159 76.5375 38.119 76.5375C41.4555 76.5375 44.7919 76.1188 47.8782 75.2814C52.1321 80.3057 58.5548 83.5716 65.6448 83.5716C78.5736 83.5716 89 73.1042 89 60.1246C89 50.9133 83.7451 42.9581 76.1546 39.1061ZM38.119 69.7546C20.7694 69.7546 6.67291 55.6027 6.67291 38.2687C6.67291 20.9348 20.7694 6.69912 38.119 6.69912C54.9681 6.69912 68.8144 20.0974 69.4817 36.9289C68.2306 36.6777 66.9794 36.594 65.6448 36.594C60.6401 36.594 55.9691 38.185 52.1321 40.8647C50.5473 38.8549 48.462 37.1801 46.2099 36.0078C49.0459 33.6631 50.881 30.0623 50.881 26.0428C50.881 18.925 45.1256 13.147 38.0356 13.147C30.9456 13.147 25.1903 18.925 25.1903 26.0428C25.1903 29.9786 27.0253 33.5794 29.7779 35.9241C23.8557 38.9387 19.6851 45.1353 19.6851 52.2532C19.7685 64.4791 31.6129 64.4791 37.9522 64.4791C39.7873 64.4791 41.2887 64.3953 42.6232 64.3116C42.9569 65.9864 43.4574 67.5774 44.0412 69.0847C42.1228 69.5872 40.1209 69.7546 38.119 69.7546ZM42.2896 59.371C41.0384 59.4547 39.6204 59.4547 37.9522 59.4547C27.8594 59.4547 24.7732 57.7799 24.7732 52.2532C24.7732 44.9679 30.6954 39.0224 37.9522 39.0224C42.0394 39.0224 45.8763 40.9484 48.3786 44.1305C44.7085 48.2337 42.4564 53.5093 42.2896 59.371ZM38.119 33.9143C33.7816 33.9143 30.2784 30.3973 30.2784 26.0428C30.2784 21.6884 33.7816 18.1714 38.119 18.1714C42.4564 18.1714 45.9597 21.6884 45.9597 26.0428C45.9597 30.3973 42.373 33.9143 38.119 33.9143ZM65.6448 78.4635C55.552 78.4635 47.2943 70.1733 47.2943 60.0409C47.2943 49.9085 55.552 41.6183 65.6448 41.6183C75.7376 41.6183 83.9953 49.9085 83.9953 60.0409C83.9953 70.1733 75.7376 78.4635 65.6448 78.4635Z" fill="url(#paint0_radial)"/>
<path d="M72.985 55.6027V51.7507C72.985 48.7361 70.149 46.224 66.7291 46.224H65.478C62.0581 46.224 59.2221 48.7361 59.2221 51.7507V55.6027C57.8041 56.7751 56.97 58.4499 56.97 60.3759V66.3213C56.97 69.7546 59.7226 72.518 63.1425 72.518H69.0647C72.4845 72.518 75.2371 69.7546 75.2371 66.3213V60.3759C75.3205 58.4499 74.403 56.7751 72.985 55.6027ZM65.5614 50.4109H66.7291C67.8969 50.4109 68.8144 51.0808 68.8144 51.7507V54.2629H63.3927V51.7507C63.4761 51.0808 64.3102 50.4109 65.5614 50.4109ZM71.15 66.3213C71.15 67.4099 70.2324 68.3311 69.1481 68.3311H63.2259C62.1415 68.3311 61.224 67.4099 61.224 66.3213V60.3759C61.224 59.2872 62.1415 58.3661 63.2259 58.3661H69.1481C70.2324 58.3661 71.15 59.2872 71.15 60.3759V66.3213Z" fill="url(#paint1_radial)"/>
<path d="M66.1453 66.74C67.0666 66.74 67.8135 65.9902 67.8135 65.0652C67.8135 64.1403 67.0666 63.3905 66.1453 63.3905C65.2239 63.3905 64.477 64.1403 64.477 65.0652C64.477 65.9902 65.2239 66.74 66.1453 66.74Z" fill="url(#paint2_radial)"/>
<path d="M76.1546 39.9435C76.1546 39.6923 76.1546 39.3573 76.1546 39.1061C76.1546 17.9202 59.1387 0.837387 38.119 0.837387C17.0159 0.837387 0 17.9202 0 39.1061C0 60.2921 17.0159 77.3749 38.119 77.3749C41.4555 77.3749 44.7919 76.9562 47.8782 76.1188C52.1321 81.1431 58.5548 84.409 65.6448 84.409C78.5736 84.409 89 73.9416 89 60.962C89 51.7507 83.7451 43.7955 76.1546 39.9435ZM38.119 70.592C20.7694 70.592 6.67291 56.4401 6.67291 39.1061C6.67291 21.7722 20.7694 7.53651 38.119 7.53651C54.9681 7.53651 68.8144 20.9348 69.4817 37.7663C68.2306 37.5151 66.9794 37.4314 65.6448 37.4314C60.6401 37.4314 55.9691 39.0224 52.1321 41.702C50.5473 39.6923 48.462 38.0175 46.2099 36.8452C49.0459 34.5005 50.881 30.8997 50.881 26.8802C50.881 19.7624 45.1256 13.9844 38.0356 13.9844C30.9456 13.9844 25.1903 19.7624 25.1903 26.8802C25.1903 30.816 27.0253 34.4167 29.7779 36.7614C23.8557 39.776 19.6851 45.9727 19.6851 53.0906C19.7685 65.3165 31.6129 65.3165 37.9522 65.3165C39.7873 65.3165 41.2887 65.2327 42.6232 65.149C42.9569 66.8238 43.4574 68.4148 44.0412 69.9221C42.1228 70.4245 40.1209 70.592 38.119 70.592ZM42.2896 60.2084C41.0384 60.2921 39.6204 60.2921 37.9522 60.2921C27.8594 60.2921 24.7732 58.6173 24.7732 53.0906C24.7732 45.8053 30.6954 39.8598 37.9522 39.8598C42.0394 39.8598 45.8763 41.7858 48.3786 44.9679C44.7085 49.0711 42.4564 54.3466 42.2896 60.2084ZM38.119 34.7517C33.7816 34.7517 30.2784 31.2347 30.2784 26.8802C30.2784 22.5258 33.7816 19.0088 38.119 19.0088C42.4564 19.0088 45.9597 22.5258 45.9597 26.8802C45.9597 31.2347 42.373 34.7517 38.119 34.7517ZM65.6448 79.3009C55.552 79.3009 47.2943 71.0107 47.2943 60.8783C47.2943 50.7459 55.552 42.4557 65.6448 42.4557C75.7376 42.4557 83.9953 50.7459 83.9953 60.8783C83.9953 71.0107 75.7376 79.3009 65.6448 79.3009Z" fill="url(#paint3_radial)"/>
<path d="M72.985 56.4401V52.5881C72.985 49.5735 70.149 47.0613 66.7291 47.0613H65.478C62.0581 47.0613 59.2221 49.5735 59.2221 52.5881V56.4401C57.8041 57.6125 56.97 59.2872 56.97 61.2132V67.1587C56.97 70.592 59.7226 73.3554 63.1425 73.3554H69.0647C72.4845 73.3554 75.2371 70.592 75.2371 67.1587V61.2132C75.3205 59.2872 74.403 57.6125 72.985 56.4401ZM65.5614 51.2483H66.7291C67.8969 51.2483 68.8144 51.9182 68.8144 52.5881V55.1003H63.3927V52.5881C63.4761 51.9182 64.3102 51.2483 65.5614 51.2483ZM71.15 67.1587C71.15 68.2473 70.2324 69.1684 69.1481 69.1684H63.2259C62.1415 69.1684 61.224 68.2473 61.224 67.1587V61.2132C61.224 60.1246 62.1415 59.2035 63.2259 59.2035H69.1481C70.2324 59.2035 71.15 60.1246 71.15 61.2132V67.1587Z" fill="url(#paint4_radial)"/>
<path d="M66.1453 67.5774C67.0666 67.5774 67.8135 66.8276 67.8135 65.9026C67.8135 64.9777 67.0666 64.2278 66.1453 64.2278C65.2239 64.2278 64.477 64.9777 64.477 65.9026C64.477 66.8276 65.2239 67.5774 66.1453 67.5774Z" fill="url(#paint5_radial)"/>
</g>
<defs>
<radialGradient id="paint0_radial" cx="0" cy="0" r="1" gradientUnits="userSpaceOnUse" gradientTransform="translate(73.0507 67.7856) scale(81.8657 82.1872)">
<stop stop-color="#FFD600"/>
<stop offset="1" stop-color="#FFEBAC"/>
</radialGradient>
<radialGradient id="paint1_radial" cx="0" cy="0" r="1" gradientUnits="userSpaceOnUse" gradientTransform="translate(73.0506 67.7856) scale(81.8656 82.1872)">
<stop stop-color="#FFD600"/>
<stop offset="1" stop-color="#FFEBAC"/>
</radialGradient>
<radialGradient id="paint2_radial" cx="0" cy="0" r="1" gradientUnits="userSpaceOnUse" gradientTransform="translate(73.0507 67.7856) scale(81.8656 82.1872)">
<stop stop-color="#FFD600"/>
<stop offset="1" stop-color="#FFEBAC"/>
</radialGradient>
<radialGradient id="paint3_radial" cx="0" cy="0" r="1" gradientUnits="userSpaceOnUse" gradientTransform="translate(21.1826 22.1157) scale(83.6215 83.9499)">
<stop stop-color="#FFD600"/>
<stop offset="1" stop-color="#FFAA00"/>
</radialGradient>
<radialGradient id="paint4_radial" cx="0" cy="0" r="1" gradientUnits="userSpaceOnUse" gradientTransform="translate(21.1826 22.1157) scale(83.6214 83.9499)">
<stop stop-color="#FFD600"/>
<stop offset="1" stop-color="#FFAA00"/>
</radialGradient>
<radialGradient id="paint5_radial" cx="0" cy="0" r="1" gradientUnits="userSpaceOnUse" gradientTransform="translate(21.1826 22.1157) scale(83.6214 83.9499)">
<stop stop-color="#FFD600"/>
<stop offset="1" stop-color="#FFAA00"/>
</radialGradient>
<clipPath id="clip0">
<rect width="89" height="86" fill="white"/>
</clipPath>
</defs>
</svg>
