<svg width="23" height="34" viewBox="0 0 23 34" fill="none" xmlns="http://www.w3.org/2000/svg">
<path d="M16.2468 16.05C18.5468 14.5 20.0638 11.8 20.0638 8.75C20.0638 3.9 16.2468 0 11.5 0C6.75319 0 2.93617 3.9 2.93617 8.75C2.93617 11.8 4.45319 14.45 6.75319 16.05C2.78936 17.9 0 22 0 26.75C0 33.25 5.1383 34 11.5 34C17.8617 34 23 33.25 23 26.75C23 22 20.2106 17.9 16.2468 16.05ZM11.5 3C14.583 3 17.1277 5.6 17.1277 8.75C17.1277 11.9 14.583 14.5 11.5 14.5C8.41702 14.5 5.87234 11.9 5.87234 8.75C5.87234 5.6 8.41702 3 11.5 3ZM11.5 31C3.5234 31 2.93617 29.4 2.93617 26.75C2.93617 21.95 6.80213 18 11.5 18C16.1979 18 20.0638 21.95 20.0638 26.75C20.0638 29.4 19.4766 31 11.5 31Z" fill="#263337"/>
</svg>
